<svg width="486" height="429" viewBox="0 0 486 429" fill="none" xmlns="http://www.w3.org/2000/svg">
<path fill-rule="evenodd" clip-rule="evenodd" d="M385.612 172.497C373.133 168.523 360.123 167.589 347.191 166.194C351.312 165.285 355.773 164.07 359.97 163.604C363.832 163.18 366.13 164.771 369.765 166.037C376.252 168.302 383.5 171.054 389.14 173.685C387.971 173.27 386.794 172.874 385.612 172.497ZM367.839 177.462C354.148 174.904 340.132 174.349 326.46 171.674C329.85 170.637 331.771 169.733 335.373 170.076C340.728 170.584 346.147 171.681 351.379 172.846C358.973 174.537 366.635 176.361 374.033 178.76C371.978 178.283 369.913 177.85 367.839 177.462ZM368.498 180.134C367.561 180.513 364.277 179.229 363.216 179C364.238 179.195 367.899 180.376 368.498 180.134ZM341.239 179.853C330.525 179.182 319.683 178.846 308.951 178.902C310.878 178.182 312.718 177.28 314.595 176.438C319.728 174.137 320.62 174.503 325.744 176.015C332.353 177.967 339.124 179.078 345.9 180.208C344.348 180.064 342.794 179.946 341.238 179.854L341.239 179.853ZM328.736 186.031C313.946 187.153 299.357 188.945 284.593 190.598C287.745 189.325 290.775 187.705 293.787 186.14C298.435 183.728 302.003 184.068 307.185 184.066C312.688 184.063 318.093 184.709 323.564 185.331C324.914 185.486 330.2 185.919 328.736 186.031ZM305.948 174.793C313.844 167.125 322.903 159.98 332.184 154.007C338.074 150.216 344.48 145.935 351.402 149.222C339.954 149.698 324.998 160.081 318.222 168.98C317.897 169.401 317.4 169.693 317.061 170.107C315.789 171.651 317.174 171.819 316.309 172.769C316.208 172.881 311.583 174.769 312.197 174.517C309.059 175.811 305.848 176.898 302.706 178.174C303.769 177.029 304.848 175.901 305.949 174.792L305.948 174.793ZM349.996 156.421C342.224 162.921 333.792 166.381 324.43 169.642C332.98 164.144 341.552 159.647 350.949 155.709C350.631 155.946 350.313 156.183 349.997 156.422L349.996 156.421ZM359.668 158.651C361.288 158.132 362.011 158.266 362.371 160.19C358.185 160.031 356.197 160.605 352.241 161.565C354.646 160.423 357.128 159.449 359.668 158.651ZM364.805 159.7C364.514 159.172 364.389 158.164 364.186 157.649C367.294 157.598 369.933 158.255 372.574 159.885C371.7 159.893 365.021 160.664 364.805 159.7L364.805 159.7ZM238.774 231.851C261.495 229.045 283.286 228.312 306.105 230.536C288.914 232.043 271.65 235.498 254.733 238.852C241.151 241.545 227.378 242.999 213.757 245.433C216.281 242.806 218.641 240.023 221.212 237.434C225.678 232.939 232.369 232.652 238.774 231.851ZM316.889 238.542C320.991 238.122 325.083 237.613 329.163 237.015C333.598 236.36 340.672 233.436 345.135 234.317C320.77 241.55 294.442 244.884 269.395 248.96C258.984 250.655 248.385 253.132 238.3 256.275C223.739 260.81 207.315 260.788 193.418 267.159C197.668 262.705 202.323 256.334 207.165 252.712C210.684 250.077 216.521 249.858 220.708 249.305C227.602 248.396 234.529 247.689 241.44 246.945C266.6 244.234 291.719 241.174 316.889 238.542ZM189.478 262.667C187.434 264.917 185.445 267.216 183.511 269.561C187.02 253.101 186.863 235.743 188.84 219.034C189.958 209.586 191.007 200.032 192.51 190.646C193.839 182.358 194.193 171.066 198.637 163.906C201.953 166.986 204.404 170.255 203.745 174.732C202.898 180.49 200.418 186.023 199.264 191.735C197.968 198.154 197.091 204.687 196.29 211.185C195.057 221.179 194.77 231.345 195.298 241.393C195.441 244.218 195.622 247.04 195.842 249.86C195.939 251.09 196.576 253.187 196.304 254.337C195.641 257.165 191.617 260.299 189.478 262.667ZM213.981 194.136C215.929 184.887 217.116 174.141 221.167 165.471C223.416 160.653 225.579 158.938 228.938 164.142C231.336 167.856 227.569 176.008 226.382 180.676C223.015 193.921 221.237 207.511 219.009 220.979C218.427 224.508 218.255 227.998 217.879 231.531C217.566 234.46 217.647 234.286 215.96 236.491C214.875 237.916 213.164 239.126 211.856 240.376C208.427 243.653 204.95 246.887 201.557 250.202C206.72 231.73 210.041 212.882 213.981 194.136ZM468.002 236.144C464.873 231.983 460.905 228.231 456.845 225.015C451.222 220.556 444.336 217.948 438.72 213.66C433.997 210.05 430.096 205.246 425.269 201.59C417.601 195.788 409.71 190.962 400.731 187.476C412.166 191.378 423.133 196.075 432.294 204.172C433.068 204.858 439.778 213.449 441.166 212.628C442.116 212.074 438.09 205.856 437.251 204.407C431.061 193.76 418.358 186.947 408.32 180.108C396.983 172.386 384.603 168.053 371.687 163.782C383.422 164.43 393.308 167.444 403.139 174.047C407.974 177.292 412.448 181.084 417.432 184.098C421.85 186.77 426.094 189.234 429.907 192.82C434.178 196.839 437.609 201.219 440.443 206.353C441.508 208.285 446.71 219.978 446.85 212.55C446.919 208.89 442.297 203.675 440.426 201.03C437.271 196.575 433.612 192.562 429.782 188.682C423.267 182.088 417.049 175.244 409.316 170.041C404.918 167.08 400.312 164.735 395.28 163.044C391.394 161.736 387.405 160.798 383.327 160.336C379.455 159.898 379.082 159.944 376.001 157.944C373.353 156.223 371.093 154.382 368.13 153.155C365.111 151.903 362.541 151.724 360.295 150.016C357.645 147.997 356.617 145.629 353.198 144.365C350.054 143.202 346.837 143.458 343.557 143.72C332.71 144.584 321.697 147.334 312.722 153.75C304.791 159.422 299.399 168.473 295.565 177.298C293.448 182.167 294.885 181.984 289.2 184.783C283.223 187.727 277.281 190.619 271.466 193.903C281.053 181.986 289.388 168.792 299.899 157.624C305.52 151.659 311.032 145.596 316.651 139.634C318.31 137.877 331.412 125.223 324.053 125.671C322.351 125.774 319.792 128.049 318.228 128.795C315.107 130.293 312.008 131.621 309.123 133.578C304.122 136.972 300.04 141.194 295.951 145.585C285.358 156.96 275.81 169.126 270.922 184.061C269.764 187.595 269.341 191.579 267.527 194.822C266.25 197.11 264.75 197.9 262.156 199.59C257.707 202.483 253.383 205.458 249.17 208.693C259.943 192.738 266.892 174.883 275.38 157.704C286.297 135.616 291.293 110.826 300.476 88.0043C302.257 83.5777 304.427 78.7067 307.416 74.9389C308.325 73.793 311.198 72.0752 311.449 70.6304C312.112 66.819 309.53 67.8423 307.635 68.9384C302.99 71.6234 298.48 77.6799 295.306 81.7623C290.686 87.7003 286.008 94.1418 282.006 100.54C268.221 122.574 259.081 147.58 251.49 172.329C247.918 183.963 244.234 195.789 242.476 207.854C241.629 213.679 242.592 213.835 237.725 217.822C232.642 221.988 227.784 226.408 222.741 230.615C227.337 221.178 230.076 209.475 233.392 199.463C236.865 188.975 240.814 178.645 244.343 168.173C250.083 151.132 254.378 133.685 258.511 116.201C260.706 106.905 262.763 97.6018 264.644 88.2405C267.062 76.2107 269.521 62.32 274.913 51.2231C275.717 49.5727 278.985 41.9044 274.257 44.5456C272.091 45.753 269.524 53.6547 268.418 55.7851C262.154 67.8843 256.877 80.1694 252.163 92.9457C243.806 115.6 237.941 138.815 231.32 161.981C228.01 157.462 221.137 152.487 215.198 154.41C209.864 156.139 207.24 163.732 205.562 168.489C205.375 165.198 201.338 159.06 198.191 158.85C196.402 158.73 193.32 160.425 191.824 161.132C188.127 162.88 183.926 165.092 181.62 168.533C176.894 175.591 177.79 186.67 176.951 194.839C174.45 219.203 174.898 242.727 177.652 266.991C178.281 272.543 179.042 275.119 175.883 279.495C172.275 284.495 168.796 289.411 165.244 294.105C166.385 291.931 165.354 285.286 165.34 282.968C165.304 276.758 165.367 270.601 165.69 264.396C166.351 251.616 165.665 238.408 165.021 225.62C163.696 199.272 163.816 173.26 164.705 146.919C164.891 141.368 164.766 135.852 164.732 130.304C164.717 128.014 165.475 122.403 161.837 123.744C160.781 124.133 160.004 128.23 159.697 129.269C156.863 138.846 155.973 149.207 154.676 159.043C153.496 167.989 152.419 176.95 151.672 185.94C150.236 203.211 150.71 219.982 150.797 237.282C150.871 251.533 152.416 267.026 155.05 280.173C156.285 286.339 158.433 293.001 159.058 299.215C159.438 302.957 157.248 304.344 154.733 307.742C152.188 311.178 149.675 314.641 147.246 318.16C147.48 312.768 145.943 307.193 145.583 301.797C145.28 297.289 144.994 292.804 144.588 288.301C144.265 284.755 143.961 281.205 143.647 277.656C142.028 259.387 140.446 241.159 137.457 223.058C132.861 195.262 127.849 166.696 128.034 138.419C128.071 133.022 128.246 127.629 128.308 122.231C128.354 118.162 127.98 114.126 127.956 110.063C127.944 107.991 128.888 103.984 128.197 101.92C126.197 95.9457 124.465 102.621 124.41 105.364C124.381 106.81 124.295 108.251 124.273 109.696C124.139 118.775 123.358 127.73 122.909 136.799C122.266 149.875 122.841 162.886 123.275 175.956C123.749 190.193 123.393 204.528 124.923 218.713C126.897 236.996 130.85 255.174 133.331 273.409C134.41 281.35 135.916 289.204 136.733 297.182C137.495 304.639 140.142 311.969 141.753 318.857L141.744 318.329C142.369 321.257 143.349 322.72 142.46 325.407C141.832 327.294 140.111 329.278 139.081 331.012C136.882 334.7 134.773 338.431 132.662 342.169C134.533 332.681 131.997 320.71 129.99 311.39C127.771 301.078 125.068 290.516 121.903 280.459C119.442 272.638 117.405 264.95 116.662 256.809C115.672 245.967 112.723 235.54 111.138 224.799C109.642 214.657 107.123 204.615 104.977 194.576C104.493 192.316 102.335 181.506 98.8232 186.382C97.9574 187.585 99.0186 190.78 99.1546 192.024C99.4888 195.104 99.6971 198.135 99.8353 201.227C100.731 220.858 104.843 240.786 108.065 260.128C110.124 272.486 112.305 284.889 115.314 297.052C117.657 306.522 118.923 316.361 121.522 325.698C122.769 330.177 124.035 334.755 126.028 338.96C127.761 342.62 129.509 343.642 128.897 347.586C128.022 353.224 123.221 359.077 121.055 364.536C119.283 368.999 117.477 373.47 115.789 377.964C113.431 384.26 111.221 390.666 109.152 397.061C107.951 400.765 105.622 405.546 105.404 409.313C105.071 415.035 108.31 413.398 110.011 409.571C111.155 406.995 112.068 404.224 113.145 401.605C121.04 382.414 128.27 361.838 140.06 344.619C144.978 337.428 158.572 335.695 166.548 333.188C185.736 327.149 206.493 326.353 226.402 324.146C242.455 322.37 258.249 320.736 273.965 316.788C276.261 316.213 318.154 303.879 317.103 301.728C317.69 302.935 271.271 313.265 267.554 313.57C255.896 314.52 244.276 314.775 232.593 315.269C203.371 316.506 174.628 317.208 148.075 331.015C151.426 325.745 155.434 315.797 161.316 313.756C172.652 309.818 184.599 307.275 196.019 303.435C207.891 299.449 220.082 296.779 232.024 293.085C243.952 289.395 255.854 285.572 267.963 282.469C280.135 279.35 292.709 276.1 305.357 276.501C310.225 276.656 315.107 277.087 319.954 277.545C321.785 277.718 336.356 280.412 328.477 277.066C323.375 274.897 316.695 274.73 311.229 273.934C304.961 273.024 298.953 272.216 292.618 272.266C278.825 272.372 264.968 275.606 251.635 278.807C235.677 282.634 219.066 286.432 203.833 292.591C189.873 298.236 175.841 303.656 161.88 309.231C164.418 305.345 167.118 301.576 169.76 297.759C171.043 295.902 172.396 292.889 174.217 291.621C176.997 289.684 182.846 289.181 186.075 288.106C199.065 283.787 212.115 278.714 225.426 275.501C246.829 270.333 268.74 267.128 290.276 262.529C302.845 259.848 316.154 257.482 329.005 257.71C333.839 257.798 338.679 257.622 343.426 258.643C345.105 259.003 347.219 259.933 348.948 260.129C354.123 260.709 350.284 258.22 347.145 257.132C322.266 248.519 294.843 255.405 269.765 258.91C253.179 261.225 236.806 263.587 220.97 269.292C206.379 274.547 192.43 281.556 177.596 286.171C181.484 280.646 184.95 274.925 191.162 271.885C198.036 268.524 205.281 267.062 212.783 265.788C228.38 263.13 243.873 259.728 259.52 257.413C273.895 255.29 288.243 253.406 302.492 250.508C316.365 247.682 330.157 246.031 343.399 240.691C347.591 239 352.674 236.069 357.15 235.813C362.952 235.482 369.977 237.22 375.666 238.082C389.522 240.177 403.905 242.337 416.714 248.202C429.282 253.958 437.816 263.004 447.437 272.461C450.468 275.445 453.45 278.479 456.473 281.471C457.146 282.138 461.163 287.146 461.991 287.21C467.115 287.594 457.449 277.438 455.781 275.357C444.254 260.976 431.78 248.982 414.822 241.147C400.37 234.469 385.261 230.126 369.501 227.902C369.541 225.053 381.152 224.911 381.47 221.96C381.892 218.025 373.767 221.963 372.157 222.447C369.099 223.365 366.125 224.513 363.052 225.382C355.996 227.376 348.19 224.92 341.023 224C332.381 222.896 323.625 222.172 314.934 221.649C286.164 219.914 258.56 220.868 230.616 228.577C235.63 224.185 240.861 220.011 246.161 215.969C248.225 214.396 249.798 212.955 252.136 212.217C256.084 210.97 260.772 211.527 264.888 211.124C281.16 209.537 297.358 207.753 313.72 207.251C340.646 206.425 368.721 211.258 394.256 219.818C406.714 223.996 418.936 228.059 429.753 235.749C432.258 237.527 434.485 239.568 436.761 241.623C437.702 242.472 443.446 248.649 443.738 248.616C446.23 248.35 434.676 235.565 432.997 233.932C410.436 212.003 381.161 207.018 351.268 202.615C320.008 198.009 288.631 200.455 257.835 207.404C263.985 203.567 270.029 196.991 276.932 194.76C282.176 193.064 288.832 193.386 294.139 192.842C309.526 191.26 325.655 193.947 341.077 195.039C358.498 196.271 375.421 198.506 392.264 203.147C400.882 205.522 409.274 208.035 417.683 211.119C424.347 213.563 429.784 215.068 435.175 219.534C437.35 221.352 443.821 226.18 447.322 229.462C448.75 230.803 450.229 233.635 451.843 234.309C457.855 236.817 449.876 227.021 448.566 225.321C453.345 228.176 457.806 231.482 462.049 235.002C462.888 235.7 463.691 236.233 464.541 236.87C465.538 237.621 466.061 239.812 467.769 239.082C469.16 238.484 468.666 237.051 468.002 236.144Z" fill="#012A32"/>
</svg>
